<svg width="92" height="42" viewBox="0 0 92 42" fill="none" xmlns="http://www.w3.org/2000/svg">
<path d="M32.2496 26.2111C32.1582 26.4653 32.0506 26.7064 31.9465 26.9505C32.1456 25.8384 32.0147 24.6659 31.2842 23.5485C30.3913 22.1828 29.1391 21.195 27.734 20.6215C27.7754 20.8348 27.8005 21.0543 27.8005 21.2796C27.8005 23.185 26.2547 24.7295 24.3478 24.7295C22.4409 24.7295 20.8951 23.185 20.8951 21.2796C20.8951 21.217 20.9102 21.1587 20.9135 21.0969C20.7965 21.1649 20.6774 21.2266 20.5627 21.3014C16.981 23.6391 15.9741 28.4355 18.3138 32.0141C19.199 33.3683 20.6985 33.8875 22.2974 33.9488C21.8872 33.9825 21.4695 34.0042 21.0384 34.0042C19.1812 34.0042 17.5015 33.6817 16.001 33.0356C14.5006 32.3896 13.2213 31.4785 12.1642 30.3011C11.1065 29.1249 10.2992 27.7612 9.74227 26.2111C9.18476 24.66 8.90571 22.938 8.90571 21.043C8.90571 19.2351 9.18476 17.5191 9.74227 15.8975C10.2992 14.2758 11.1065 12.8906 12.1642 11.7418C13.2213 10.5943 14.5006 9.68318 16.001 9.00844C17.5015 8.33376 19.1812 7.99591 21.0384 7.99591C22.9248 7.99591 24.6111 8.33376 26.0972 9.00844C27.5833 9.68318 28.8412 10.5943 29.8695 11.7418C30.8992 12.8906 31.6921 14.2758 32.2496 15.8975C32.8065 17.5191 33.0849 19.2351 33.0849 21.043C33.0849 22.938 32.8065 24.66 32.2496 26.2111ZM36.2472 5.86791C34.3972 3.9919 32.1814 2.54348 29.6 1.52606C27.0186 0.509925 24.1647 -1.3113e-06 21.0384 -1.3113e-06C17.8546 -1.3113e-06 14.972 0.509925 12.3906 1.52606C9.80922 2.54348 7.5935 3.9919 5.74353 5.86791C3.89349 7.74515 2.4737 9.98051 1.48417 12.5741C0.494574 15.1691 -0.00012207 17.9848 -0.00012207 21.0215C-0.00012207 24.1454 0.494574 26.9827 1.48417 29.5332C2.4737 32.0852 3.89349 34.2835 5.74353 36.1321C7.5935 37.9806 9.80922 39.4207 12.3906 40.4525C14.972 41.4842 17.8546 42 21.0384 42C24.1647 42 27.0186 41.4842 29.6 40.4525C32.1814 39.4207 34.3972 37.9806 36.2472 36.1321C38.0972 34.2835 39.5169 32.0852 40.5065 29.5332C41.4961 26.9827 41.9908 24.1454 41.9908 21.0215C41.9908 17.9848 41.4961 15.1691 40.5065 12.5741C39.5169 9.98051 38.0972 7.74515 36.2472 5.86791Z" fill="#6050A7"/>
<path d="M81.3325 26.2114C80.7756 27.7614 79.9683 29.1251 78.9106 30.3013C77.8535 31.4787 76.5742 32.3899 75.0737 33.0359C73.5733 33.6819 71.8936 34.0044 70.0364 34.0044C69.6053 34.0044 69.1875 33.9827 68.7774 33.9491C70.3762 33.8877 71.8757 33.3685 72.761 32.0144C75.1006 28.4357 74.0937 23.6394 70.512 21.3016C70.0934 21.0285 69.657 20.8052 69.2109 20.622C69.2522 20.8353 69.2773 21.0545 69.2773 21.2799C69.2773 23.1852 67.7315 24.7298 65.8246 24.7298C63.9177 24.7298 62.3719 23.1852 62.3719 21.2799C62.3719 21.2158 62.3874 21.1559 62.3908 21.0926C61.3759 21.68 60.4759 22.5005 59.7906 23.5488C59.0601 24.6661 58.9292 25.8386 59.1282 26.9507C59.0242 26.7066 58.9165 26.4655 58.8251 26.2114C58.2683 24.6602 57.9898 22.9383 57.9898 21.0432C57.9898 19.2353 58.2683 17.5194 58.8251 15.8978C59.3827 14.276 60.1756 12.8908 61.2053 11.7421C62.2336 10.5946 63.4914 9.68343 64.9776 9.00868C66.4637 8.334 68.1499 7.99615 70.0364 7.99615C71.8936 7.99615 73.5733 8.334 75.0737 9.00868C76.5742 9.68343 77.8535 10.5946 78.9106 11.7421C79.9683 12.8908 80.7756 14.276 81.3325 15.8978C81.89 17.5194 82.169 19.2353 82.169 21.0432C82.169 22.9383 81.89 24.6602 81.3325 26.2114ZM85.3313 5.86816C83.4812 3.99214 81.2655 2.54373 78.6841 1.5263C76.1027 0.510172 73.2201 0.000242829 70.0364 0.000242829C66.91 0.000242829 64.0561 0.510172 61.4747 1.5263C58.8933 2.54373 56.6776 3.99214 54.8276 5.86816C52.9776 7.7454 51.5578 9.98075 50.5682 12.5743C49.5787 15.1693 49.084 17.985 49.084 21.0217C49.084 24.1457 49.5787 26.9829 50.5682 29.5335C51.5578 32.0854 52.9776 34.2838 54.8276 36.1323C56.6776 37.9809 58.8933 39.4209 61.4747 40.4528C64.0561 41.4845 66.91 42.0002 70.0364 42.0002C73.2201 42.0002 76.1027 41.4845 78.6841 40.4528C81.2655 39.4209 83.4812 37.9809 85.3313 36.1323C87.1813 34.2838 88.601 32.0854 89.5906 29.5335C90.5802 26.9829 91.0749 24.1457 91.0749 21.0217C91.0749 17.985 90.5802 15.1693 89.5906 12.5743C88.601 9.98075 87.1813 7.7454 85.3313 5.86816Z" fill="#6050A7"/>
</svg>
