<svg width="1184" height="540" viewBox="0 0 1184 540" fill="none" xmlns="http://www.w3.org/2000/svg">
<path d="M786 14C790.982 33.2606 798.08 51.488 804 70" stroke="white" stroke-opacity="0.5" stroke-width="3" stroke-linecap="round"/>
<path d="M865 240C889.285 307.998 902.5 333.5 931 403.5" stroke="white" stroke-opacity="0.5" stroke-width="3" stroke-linecap="round"/>
<path d="M979 8C1011.67 71.3438 1139.5 184.5 1182 259" stroke="white" stroke-opacity="0.5" stroke-width="3" stroke-linecap="round"/>
<path d="M628.137 17.5059C606.665 82.3981 599.639 154.174 583 220.731" stroke="white" stroke-opacity="0.5" stroke-width="3" stroke-linecap="round"/>
<path d="M540.908 412C536.302 429.697 533.359 447.414 531 465.503" stroke="white" stroke-opacity="0.5" stroke-width="3" stroke-linecap="round"/>
<path d="M533.604 15C513.433 46.518 484.981 74.2289 461.676 103.378C416.123 160.356 371.907 218.396 327.496 276.264" stroke="white" stroke-opacity="0.5" stroke-width="3" stroke-linecap="round"/>
<path d="M399.282 2C378.933 26.1644 343.919 42.5634 318 60.0586" stroke="white" stroke-opacity="0.5" stroke-width="3" stroke-linecap="round"/>
<path d="M62.9616 221C57.7401 221.614 56.1317 224.045 52.3175 227.451C36.8658 241.247 18.7706 252.49 2 264.544" stroke="white" stroke-opacity="0.5" stroke-width="3" stroke-linecap="round"/>
<path d="M237.506 392.382C208.308 443.906 170.436 491.774 133 537.528" stroke="white" stroke-opacity="0.5" stroke-width="3" stroke-linecap="round"/>
<path d="M285.969 312.908C285.581 320.271 280.797 330.371 274.669 334.748C273.815 335.359 272.698 333.117 271.718 332.725C271.39 332.594 273.985 332.64 274.585 332.64C282.296 332.64 280.895 340.284 282.258 345.542C282.895 347.995 284.502 361.215 283.017 353.047C281.762 346.143 282.191 332.64 292.04 332.64C292.719 332.64 289.782 331.227 288.33 329.605C284.312 325.114 285.969 317.098 285.969 311.391" stroke="white" stroke-opacity="0.5" stroke-width="3" stroke-linecap="round"/>
<path d="M941.569 409C941.181 416.362 941.345 425.957 935.217 430.334C934.363 430.944 932.008 430.726 931.028 430.334C930.701 430.203 933.295 430.25 933.895 430.25C941.606 430.25 940.206 437.893 941.569 443.151C942.205 445.605 942.5 458.5 942.5 449.5C941.245 442.596 945.151 430.334 955 430.334C955.679 430.334 949.092 428.837 947.64 427.214C943.622 422.723 941.452 417.207 941.452 411.5" stroke="white" stroke-opacity="0.5" stroke-width="3" stroke-linecap="round"/>
</svg>
