<svg width="23" height="37" viewBox="0 0 23 37" fill="none" xmlns="http://www.w3.org/2000/svg">
<path d="M8.40468 2C8.40468 6.01301 8.72008 10.4942 7.08606 14.2291C6.28499 16.0601 4.84547 16.9973 3.23656 18.2487C1.83357 19.3399 1.28707 19.6099 3.42798 19.6099C4.9327 19.6099 7.42527 20.2371 8.40468 22C10.1415 25.1263 9.42754 24.8551 11 28C11.6394 29.2788 12.9986 33.1247 12.9986 34.54C12.9986 36.5661 12.9986 31 12.5 29C12.5 25.5 11.8948 21.7151 14 19.6099C14.6871 18.9227 18.1271 17.6957 19.1237 17.6957C19.4666 17.6957 21.2266 17.8296 20.5699 17.6107C19.774 17.3454 16.2564 16.3362 15.5 16C11.1055 14.0469 8.40468 10.224 8.40468 4.67976" stroke="#6050A7" stroke-width="3" stroke-linecap="round"/>
</svg>
