<svg width="42" height="44" viewBox="0 0 42 44" fill="none" xmlns="http://www.w3.org/2000/svg">
<path d="M8.09936 34.4418C11.708 27.6592 15.4011 20.955 19.5543 14.4826C21.8581 10.8924 24.2457 7.28302 25.9206 3.34898C27.2229 0.290293 26.3634 3.17095 26.1716 4.752C25.4784 10.4669 25.7609 16.2989 25.7609 22.0409C25.7609 22.6915 26.0909 42 25.2589 42C24.841 42 24.7544 37.9505 24.6884 37.5873C23.8381 32.9026 21.7853 29.039 19.1892 25.0732C16.6851 21.2481 13.9126 17.7435 9.33157 16.3835C7.1117 15.7245 0.154702 15.519 2.46319 15.3199C7.87607 14.8531 13.5349 15.2802 18.961 15.2973C25.1418 15.3168 31.0412 15.6722 37.1245 16.6777C37.6945 16.7719 40.0327 16.9625 39.9997 16.9719C36.898 17.8507 33.7707 19.9563 30.8266 21.2715C24.3772 24.1525 17.9225 27.3347 11.9557 31.1153C11.7132 31.2689 7.05226 34.6096 8.92083 33.2198" stroke="#6050A7" stroke-width="3" stroke-linecap="round"/>
</svg>
