<svg width="277" height="148" viewBox="0 0 277 148" fill="none" xmlns="http://www.w3.org/2000/svg">
<path d="M2.06439 93.051C14.6279 50.3359 28.3703 74.688 43.05 98.536C44.2848 100.542 58.788 124.792 59.4419 123.835C69.1358 109.659 64.818 85.803 74.0709 70.0583C90.5916 41.9465 133.148 118.108 141.479 130.719C172.094 177.057 155.286 101.939 159.901 87.3352C172.096 48.7414 221.06 66.894 242.454 84.1486C257.071 95.938 240.288 86.2922 234.844 79.7261C226.298 69.4193 210.235 52.4229 217.538 37.7508C223.449 25.8754 239.224 17.2452 251.568 14.0721C253.583 13.5541 283.68 8.75178 272.236 1.66469" stroke="#F3CD7E" stroke-width="3" stroke-linecap="round"/>
</svg>
