<svg width="22" height="22" viewBox="0 0 22 22" fill="none" xmlns="http://www.w3.org/2000/svg">
<path d="M13.0439 2.19466e-07C14.4068 -7.71341e-06 15.4907 -0.000147756 16.3652 0.0712893C17.2608 0.144459 18.0244 0.298053 18.7236 0.654297C19.8526 1.22954 20.7705 2.1474 21.3457 3.27637C21.7019 3.97558 21.8555 4.73921 21.9287 5.63477C22.0001 6.50926 22 7.59324 22 8.95605V13.0439C22 14.4068 22.0001 15.4907 21.9287 16.3652C21.8555 17.2608 21.7019 18.0244 21.3457 18.7236C20.7705 19.8526 19.8526 20.7705 18.7236 21.3457C18.0244 21.7019 17.2608 21.8555 16.3652 21.9287C15.4907 22.0001 14.4068 22 13.0439 22H8.95605C7.5932 22 6.50928 22.0001 5.63477 21.9287C4.73921 21.8555 3.97558 21.7019 3.27637 21.3457C2.1474 20.7705 1.22954 19.8526 0.654297 18.7236C0.298053 18.0244 0.144459 17.2608 0.0712893 16.3652C-0.000147883 15.4907 -7.71339e-06 14.4068 2.19478e-07 13.0439V8.95605C-7.71344e-06 7.5932 -0.000148022 6.50928 0.0712893 5.63477C0.144459 4.73921 0.298053 3.97558 0.654297 3.27637C1.22954 2.14739 2.14739 1.22954 3.27637 0.654297C3.97558 0.298053 4.73921 0.144459 5.63477 0.0712893C6.50928 -0.000147999 7.5932 -7.71341e-06 8.95605 2.19466e-07H13.0439ZM9 2C7.58363 2 6.58138 2.00047 5.79785 2.06445C5.02593 2.12752 4.55391 2.24686 4.18359 2.43555C3.43109 2.81902 2.81902 3.43109 2.43555 4.18359C2.24686 4.55391 2.12752 5.02593 2.06445 5.79785C2.00047 6.58138 2 7.58363 2 9V13C2 14.4164 2.00047 15.4186 2.06445 16.2021C2.12752 16.9741 2.24686 17.4461 2.43555 17.8164C2.81902 18.5689 3.43109 19.181 4.18359 19.5645C4.55391 19.7531 5.02593 19.8725 5.79785 19.9355C6.58138 19.9995 7.58363 20 9 20H13C14.4164 20 15.4186 19.9995 16.2021 19.9355C16.9741 19.8725 17.4461 19.7531 17.8164 19.5645C18.5689 19.181 19.181 18.5689 19.5645 17.8164C19.7531 17.4461 19.8725 16.9741 19.9355 16.2021C19.9995 15.4186 20 14.4164 20 13V9C20 7.58363 19.9995 6.58138 19.9355 5.79785C19.8725 5.02593 19.7531 4.55391 19.5645 4.18359C19.181 3.43109 18.5689 2.81902 17.8164 2.43555C17.4461 2.24686 16.9741 2.12752 16.2021 2.06445C15.4186 2.00047 14.4164 2 13 2H9ZM11 5C14.3137 5 17 7.68629 17 11C17 14.3137 14.3137 17 11 17C7.68629 17 5 14.3137 5 11C5 7.68629 7.68629 5 11 5ZM11 7C8.79086 7 7 8.79086 7 11C7 13.2091 8.79086 15 11 15C13.2091 15 15 13.2091 15 11C15 8.79086 13.2091 7 11 7ZM17 4C17.5523 4 18 4.44772 18 5C18 5.55228 17.5523 6 17 6C16.4477 6 16 5.55228 16 5C16 4.44772 16.4477 4 17 4Z" fill="black"/>
</svg>
