<svg width="132" height="30" viewBox="0 0 132 30" fill="none" xmlns="http://www.w3.org/2000/svg">
<g clip-path="url(#clip0_12335_7085)">
<mask id="mask0_12335_7085" style="mask-type:luminance" maskUnits="userSpaceOnUse" x="-15" y="-8" width="162" height="47">
<path d="M-14.9609 -7.94098H146.079V38.8237H-14.9609V-7.94098Z" fill="white"/>
</mask>
<g mask="url(#mask0_12335_7085)">
<path d="M12.2722 17.3872C12.0683 17.9612 11.7725 18.4662 11.3852 18.9019C10.9983 19.3381 10.5299 19.6754 9.98023 19.9148C9.43089 20.1541 8.81585 20.2734 8.13568 20.2734C7.97798 20.2734 7.82495 20.2654 7.67455 20.253C8.26009 20.2303 8.80913 20.0382 9.1333 19.5364C9.99016 18.2109 9.62131 16.4344 8.30974 15.5688C8.15671 15.4676 7.99667 15.3849 7.83342 15.317C7.84861 15.3961 7.85766 15.4773 7.85766 15.5608C7.85766 16.2665 7.29168 16.8385 6.59341 16.8385C5.89513 16.8385 5.32915 16.2665 5.32915 15.5608C5.32915 15.5369 5.3347 15.5148 5.33587 15.4915C4.96439 15.709 4.63467 16.0127 4.38381 16.4011C4.1163 16.8149 4.0684 17.249 4.14141 17.6611C4.10316 17.5708 4.06373 17.4813 4.03044 17.3872C3.8263 16.8128 3.72438 16.175 3.72438 15.4732C3.72438 14.8035 3.8263 14.1677 4.03044 13.5674C4.23458 12.9665 4.52487 12.4535 4.90189 12.0282C5.27834 11.6032 5.73918 11.2656 6.28326 11.0159C6.82733 10.7659 7.445 10.6408 8.13568 10.6408C8.81585 10.6408 9.43089 10.7659 9.98023 11.0159C10.5299 11.2656 10.9983 11.6032 11.3852 12.0282C11.7725 12.4535 12.0683 12.9665 12.2722 13.5674C12.4763 14.1677 12.5785 14.8035 12.5785 15.4732C12.5785 16.175 12.4763 16.8128 12.2722 17.3872ZM13.7365 9.85273C13.0589 9.15767 12.2476 8.62139 11.3023 8.24449C10.3573 7.86818 9.30152 7.67929 8.13568 7.67929C6.99088 7.67929 5.94595 7.86818 5.0006 8.24449C4.05526 8.62139 3.24397 9.15767 2.56643 9.85273C1.88889 10.5478 1.36905 11.3757 1.00663 12.3364C0.644493 13.2974 0.463135 14.3404 0.463135 15.4652C0.463135 16.6222 0.644493 17.6729 1.00663 18.6176C1.36905 19.5627 1.88889 20.377 2.56643 21.0617C3.24397 21.7462 4.05526 22.2798 5.0006 22.6617C5.94595 23.0439 6.99088 23.2349 8.13568 23.2349C9.30152 23.2349 10.3573 23.0439 11.3023 22.6617C12.2476 22.2798 13.0589 21.7462 13.7365 21.0617C14.414 20.377 14.9339 19.5627 15.2963 18.6176C15.6584 17.6729 15.8398 16.6222 15.8398 15.4652C15.8398 14.3404 15.6584 13.2974 15.2963 12.3364C14.9339 11.3757 14.414 10.5478 13.7365 9.85273Z" fill="#6050A7"/>
<path d="M31.249 21.7342C31.249 22.3579 30.7441 22.8682 30.127 22.8682H29.1028C28.486 22.8682 27.9811 22.3579 27.9811 21.7342V14.8276C27.9811 14.2039 27.9253 13.1868 27.8572 12.567C27.8572 12.567 27.7652 11.7315 27.3336 11.2846C26.902 10.8378 26.2758 10.6144 25.4549 10.6144C24.2447 10.6144 23.2579 11.109 22.4948 12.0984C21.7316 13.0877 21.4881 15.0737 21.4881 15.0737C21.4124 15.6923 21.3502 16.7091 21.3502 17.3327V21.7342C21.3502 22.3579 20.8453 22.8682 20.2282 22.8682H19.2043C18.5872 22.8682 18.0823 22.3579 18.0823 21.7342V9.13157C18.0823 8.50793 18.5872 7.99792 19.2043 7.99792H20.2282C20.8453 7.99792 21.3502 8.50793 21.3502 9.13157V10.5975C21.3502 11.2212 21.5421 11.2596 21.7769 10.6825C21.7769 10.6825 22.2819 9.44176 23.1659 8.72368C24.0499 8.00589 25.1392 7.6467 26.4338 7.6467C27.939 7.6467 29.1177 8.14136 29.9702 9.13068C30.8226 10.12 31.1147 12.5682 31.1147 12.5682C31.1886 13.1871 31.249 14.2039 31.249 14.8276V21.7342Z" fill="white"/>
<path d="M44.3529 13.7899C44.97 13.7899 45.2933 13.3138 45.0713 12.7318C45.0713 12.7318 44.817 12.0644 44.0066 11.4842C43.1958 10.9045 42.2753 10.6147 41.2438 10.6147C40.212 10.6147 39.2863 10.9045 38.465 11.4842C37.6441 12.0644 37.3874 12.7329 37.3874 12.7329C37.164 13.3144 37.4861 13.7899 38.1032 13.7899H44.3529ZM37.961 16.6938C37.3439 16.6938 37.0034 17.176 37.204 17.7657C37.204 17.7657 37.4785 18.5721 38.2837 19.25C39.0888 19.9286 40.1703 20.2677 41.528 20.2677C42.591 20.2677 43.5145 20.1 44.2986 19.765C45.0824 19.4301 45.4481 19.1373 45.4481 19.1373C45.9317 18.7498 46.6241 18.8457 46.9869 19.3501L47.3411 19.8424C47.7041 20.3468 47.6092 21.0817 47.1305 21.4751C47.1305 21.4751 46.0511 22.3626 44.9934 22.7118C43.9356 23.0606 42.7806 23.2354 41.528 23.2354C40.3914 23.2354 39.3336 23.0438 38.3547 22.661C37.3757 22.2779 36.5285 21.7434 35.813 21.0575C35.0969 20.3713 34.5365 19.5555 34.1314 18.6084C33.7267 17.6616 33.5237 16.6085 33.5237 15.4492C33.5237 14.322 33.7106 13.2819 34.0841 12.3301C34.4576 11.3785 34.9839 10.5536 35.6629 9.85676C36.3419 9.16052 37.1549 8.61804 38.102 8.22934C39.0494 7.84122 40.0967 7.64702 41.2438 7.64702C42.433 7.64702 43.5118 7.85244 44.4803 8.26151C45.4487 8.67087 46.2775 9.26441 46.9667 10.0403C47.6559 10.8169 48.1956 11.7663 48.5849 12.8885C48.9742 14.0109 49.0869 15.5628 49.0869 15.5628C49.1322 16.1849 48.6643 16.6938 48.0473 16.6938H37.961Z" fill="white"/>
<path d="M64.9828 18.4168C64.9828 19.3849 64.767 20.1718 64.3356 20.7783C63.9037 21.3845 63.3488 21.8739 62.6698 22.246C61.9911 22.6188 61.2333 22.8762 60.3966 23.0199C59.5599 23.1636 58.7413 23.2354 57.9416 23.2354C56.605 23.2354 55.2735 23.0394 53.9474 22.6486C52.6212 22.2567 51.4942 21.6451 51.4942 21.6451C50.9504 21.3503 50.7337 20.6537 51.0126 20.0974L51.3564 19.4123C51.6353 18.856 52.3116 18.6358 52.8592 18.9227C52.8592 18.9227 54.0814 19.5635 55.0446 19.8447C56.0077 20.1266 56.9729 20.2677 57.9416 20.2677C59.2573 20.2677 60.2149 20.1266 60.8148 19.8444C61.4149 19.562 61.7148 19.1706 61.7148 18.6704C61.7148 18.4254 61.6304 18.2232 61.4622 18.0632C61.2937 17.9036 61.0145 17.7569 60.6255 17.6241C60.2359 17.491 59.7228 17.3576 59.0862 17.2247C58.4492 17.0913 57.6575 16.9503 56.7101 16.8009C55.9522 16.6734 55.2341 16.5164 54.5551 16.3299C53.8764 16.1436 53.2789 15.8801 52.7631 15.5392C52.2474 15.1983 51.8342 14.7671 51.524 14.245C51.2136 13.7229 51.0582 13.0682 51.0582 12.2799C51.0582 11.4812 51.2617 10.7862 51.6691 10.1956C52.076 9.60412 52.6101 9.11713 53.271 8.73374C53.9322 8.35005 54.6734 8.0735 55.4943 7.90291C56.3153 7.73261 57.1365 7.64702 57.9574 7.64702C59.1151 7.64702 60.2386 7.79872 61.3279 8.10184C62.4172 8.40495 63.2127 8.8515 63.2127 8.8515C63.7521 9.15432 63.9633 9.85617 63.6817 10.4113L63.4104 10.9458C63.1292 11.501 62.4537 11.7144 61.9096 11.4201C61.9096 11.4201 61.2806 11.0801 60.5069 10.8939C59.7333 10.7083 58.8832 10.6147 57.9574 10.6147C57.5678 10.6147 57.1625 10.6365 56.7416 10.6784C56.3208 10.7212 55.9309 10.8039 55.5735 10.9258C55.2157 11.0483 54.9181 11.213 54.6816 11.4204C54.4447 11.6279 54.3262 11.8809 54.3262 12.1784C54.3262 12.5718 54.6702 12.8941 55.3588 13.1438C56.0472 13.3935 57.2215 13.6408 58.8823 13.8855C59.7856 14.0133 60.6106 14.1753 61.3568 14.3722C62.103 14.5693 62.7443 14.835 63.2802 15.1699C63.8161 15.5049 64.2337 15.9358 64.5333 16.4624C64.8327 16.9889 64.9828 17.6409 64.9828 18.4168Z" fill="white"/>
<path d="M80.0941 17.8965C80.696 18.0334 81.0525 18.637 80.8861 19.2376C80.8861 19.2376 80.4124 20.9477 79.3651 21.8626C78.3176 22.7779 77.0101 23.2354 75.4418 23.2354C74.5788 23.2354 73.7894 23.0919 73.0736 22.8041C72.3578 22.517 71.7475 22.1171 71.2425 21.6062C70.7373 21.0953 70.3448 20.4796 70.0662 19.7606C69.7873 19.0419 69.7441 18.534 69.7441 18.534C69.6912 17.9124 69.648 16.8939 69.648 16.2702V12.0996C69.648 11.4759 69.143 10.9659 68.526 10.9659H67.4387C66.8216 10.9659 66.3167 10.4556 66.3167 9.83197V9.13189C66.3167 8.50854 66.8216 7.99824 67.4387 7.99824H68.526C69.143 7.99824 69.648 7.48793 69.648 6.86429V3.1806C69.648 2.55725 70.1526 2.04695 70.7697 2.04695H71.7939C72.411 2.04695 72.9159 2.55725 72.9159 3.1806V6.86429C72.9159 7.48793 73.4209 7.99824 74.0377 7.99824H77.9668C78.5839 7.99824 79.0888 8.50854 79.0888 9.13189V9.83197C79.0888 10.4556 78.5839 10.9659 77.9668 10.9659H74.0377C73.4209 10.9659 72.9159 11.4759 72.9159 12.0996V16.2841C72.9159 16.9078 72.9857 17.9233 73.071 18.5408C73.071 18.5408 73.1472 19.0936 73.6104 19.5635C74.0736 20.0333 74.684 20.2677 75.4418 20.2677C76.3679 20.2677 77.0574 19.9964 77.5101 19.454C77.9624 18.9115 78.0419 18.5913 78.0419 18.5913C78.1923 17.9865 78.8076 17.6037 79.4098 17.7407L80.0941 17.8965Z" fill="white"/>
<path d="M94.381 15.4571C94.381 14.7863 94.2785 14.1493 94.0741 13.5472C93.8696 12.9454 93.5735 12.4313 93.1854 12.0051C92.7975 11.5792 92.3279 11.241 91.7774 10.9907C91.2266 10.7401 90.6104 10.6147 89.9288 10.6147C89.2367 10.6147 88.6178 10.7401 88.0726 10.9907C87.5273 11.241 87.0656 11.5792 86.6883 12.0051C86.3104 12.4313 86.0195 12.9454 85.8151 13.5472C85.6107 14.1493 85.5084 14.7863 85.5084 15.4571C85.5084 16.1605 85.6107 16.7994 85.8151 17.3753C86.0195 17.9505 86.3104 18.4567 86.6883 18.8932C87.0656 19.3303 87.5273 19.6685 88.0726 19.9082C88.6178 20.1478 89.2367 20.2677 89.9288 20.2677C90.6104 20.2677 91.2266 20.1478 91.7774 19.9082C92.3279 19.6685 92.7975 19.3303 93.1854 18.8932C93.5735 18.4567 93.8696 17.9505 94.0741 17.3753C94.2785 16.7994 94.381 16.1605 94.381 15.4571ZM97.6489 15.4492C97.6489 16.6085 97.4676 17.6616 97.1043 18.6084C96.7413 19.5555 96.2203 20.3713 95.5413 21.0575C94.8626 21.7434 94.0495 22.2779 93.1021 22.661C92.155 23.0438 91.0973 23.2354 89.9288 23.2354C88.7817 23.2354 87.7344 23.0438 86.7873 22.661C85.8399 22.2779 85.0269 21.7434 84.3482 21.0575C83.6692 20.3713 83.1481 19.5555 82.7851 18.6084C82.4218 17.6616 82.2405 16.6085 82.2405 15.4492C82.2405 14.322 82.4218 13.2769 82.7851 12.3138C83.1481 11.3514 83.6692 10.5217 84.3482 9.82489C85.0269 9.12864 85.8399 8.59118 86.7873 8.2134C87.7344 7.83621 88.7817 7.64702 89.9288 7.64702C91.0973 7.64702 92.155 7.83621 93.1021 8.2134C94.0495 8.59118 94.8626 9.12864 95.5413 9.82489C96.2203 10.5217 96.7413 11.3514 97.1043 12.3138C97.4676 13.2769 97.6489 14.322 97.6489 15.4492Z" fill="white"/>
<path d="M113.026 21.7342C113.026 22.3579 112.521 22.8682 111.904 22.8682H110.88C110.263 22.8682 109.758 22.3579 109.758 21.7342V14.8276C109.758 14.2039 109.703 13.1868 109.635 12.567C109.635 12.567 109.543 11.7315 109.111 11.2846C108.679 10.8378 108.053 10.6144 107.232 10.6144C106.022 10.6144 105.035 11.109 104.272 12.0984C103.509 13.0877 103.265 15.0737 103.265 15.0737C103.19 15.6923 103.128 16.7091 103.128 17.3327V21.7342C103.128 22.3579 102.623 22.8682 102.006 22.8682H100.982C100.365 22.8682 99.8596 22.3579 99.8596 21.7342V9.13157C99.8596 8.50793 100.365 7.99792 100.982 7.99792H102.006C102.623 7.99792 103.128 8.50793 103.128 9.13157V10.5975C103.128 11.2212 103.319 11.2596 103.554 10.6825C103.554 10.6825 104.059 9.44176 104.943 8.72368C105.827 8.00589 106.917 7.6467 108.211 7.6467C109.716 7.6467 110.895 8.14136 111.748 9.13068C112.6 10.12 112.892 12.5682 112.892 12.5682C112.966 13.1871 113.026 14.2039 113.026 14.8276V21.7342Z" fill="white"/>
<path d="M125.839 13.7899C126.456 13.7899 126.78 13.3138 126.558 12.7318C126.558 12.7318 126.303 12.0644 125.493 11.4842C124.682 10.9045 123.762 10.6147 122.73 10.6147C121.698 10.6147 120.773 10.9045 119.951 11.4842C119.13 12.0644 118.874 12.7329 118.874 12.7329C118.65 13.3144 118.972 13.7899 119.59 13.7899H125.839ZM119.447 16.6938C118.83 16.6938 118.49 17.176 118.69 17.7657C118.69 17.7657 118.965 18.5721 119.77 19.25C120.575 19.9286 121.657 20.2677 123.014 20.2677C124.077 20.2677 125.001 20.1 125.785 19.765C126.569 19.4301 126.934 19.1373 126.934 19.1373C127.418 18.7498 128.11 18.8457 128.473 19.3501L128.827 19.8424C129.19 20.3468 129.096 21.0817 128.617 21.4751C128.617 21.4751 127.537 22.3626 126.48 22.7118C125.422 23.0606 124.267 23.2354 123.014 23.2354C121.878 23.2354 120.82 23.0438 119.841 22.661C118.862 22.2779 118.015 21.7434 117.299 21.0575C116.583 20.3713 116.023 19.5555 115.618 18.6084C115.213 17.6616 115.01 16.6085 115.01 15.4492C115.01 14.322 115.197 13.2819 115.57 12.3301C115.944 11.3785 116.47 10.5536 117.149 9.85676C117.828 9.16052 118.641 8.61804 119.588 8.22934C120.536 7.84122 121.583 7.64702 122.73 7.64702C123.919 7.64702 124.998 7.85244 125.967 8.26151C126.935 8.67087 127.764 9.26441 128.453 10.0403C129.142 10.8169 129.682 11.7663 130.071 12.8885C130.461 14.0109 130.573 15.5628 130.573 15.5628C130.619 16.1849 130.151 16.6938 129.534 16.6938H119.447Z" fill="white"/>
<path d="M31.249 21.7342C31.249 22.3579 30.7441 22.8682 30.127 22.8682H29.1028C28.486 22.8682 27.9811 22.3579 27.9811 21.7342V14.8276C27.9811 14.2039 27.9253 13.1868 27.8572 12.567C27.8572 12.567 27.7652 11.7315 27.3336 11.2846C26.902 10.8378 26.2758 10.6144 25.4549 10.6144C24.2447 10.6144 23.2579 11.109 22.4948 12.0984C21.7316 13.0877 21.4881 15.0737 21.4881 15.0737C21.4124 15.6923 21.3502 16.7091 21.3502 17.3327V21.7342C21.3502 22.3579 20.8453 22.8682 20.2282 22.8682H19.2043C18.5872 22.8682 18.0823 22.3579 18.0823 21.7342V9.13157C18.0823 8.50793 18.5872 7.99792 19.2043 7.99792H20.2282C20.8453 7.99792 21.3502 8.50793 21.3502 9.13157V10.5975C21.3502 11.2212 21.5421 11.2596 21.7769 10.6825C21.7769 10.6825 22.2819 9.44176 23.1659 8.72368C24.0499 8.00589 25.1392 7.6467 26.4338 7.6467C27.939 7.6467 29.1177 8.14136 29.9702 9.13068C30.8226 10.12 31.1147 12.5682 31.1147 12.5682C31.1886 13.1871 31.249 14.2039 31.249 14.8276V21.7342Z" fill="#6050A7"/>
<path d="M31.249 21.7342C31.249 22.3579 30.7441 22.8682 30.127 22.8682H29.1028C28.486 22.8682 27.9811 22.3579 27.9811 21.7342V14.8276C27.9811 14.2039 27.9253 13.1868 27.8572 12.567C27.8572 12.567 27.7652 11.7315 27.3336 11.2846C26.902 10.8378 26.2758 10.6144 25.4549 10.6144C24.2447 10.6144 23.2579 11.109 22.4948 12.0984C21.7316 13.0877 21.4881 15.0737 21.4881 15.0737C21.4124 15.6923 21.3502 16.7091 21.3502 17.3327V21.7342C21.3502 22.3579 20.8453 22.8682 20.2282 22.8682H19.2043C18.5872 22.8682 18.0823 22.3579 18.0823 21.7342V9.13157C18.0823 8.50793 18.5872 7.99792 19.2043 7.99792H20.2282C20.8453 7.99792 21.3502 8.50793 21.3502 9.13157V10.5975C21.3502 11.2212 21.5421 11.2596 21.7769 10.6825C21.7769 10.6825 22.2819 9.44176 23.1659 8.72368C24.0499 8.00589 25.1392 7.6467 26.4338 7.6467C27.939 7.6467 29.1177 8.14136 29.9702 9.13068C30.8226 10.12 31.1147 12.5682 31.1147 12.5682C31.1886 13.1871 31.249 14.2039 31.249 14.8276V21.7342Z" fill="#6050A7"/>
<path d="M44.3529 13.7899C44.97 13.7899 45.2933 13.3138 45.0713 12.7318C45.0713 12.7318 44.817 12.0644 44.0066 11.4842C43.1958 10.9045 42.2753 10.6147 41.2438 10.6147C40.212 10.6147 39.2863 10.9045 38.465 11.4842C37.6441 12.0644 37.3874 12.7329 37.3874 12.7329C37.164 13.3144 37.4861 13.7899 38.1032 13.7899H44.3529ZM37.961 16.6938C37.3439 16.6938 37.0034 17.176 37.204 17.7657C37.204 17.7657 37.4785 18.5721 38.2837 19.25C39.0888 19.9286 40.1703 20.2677 41.528 20.2677C42.591 20.2677 43.5145 20.1 44.2986 19.765C45.0824 19.4301 45.4481 19.1373 45.4481 19.1373C45.9317 18.7498 46.6241 18.8457 46.9869 19.3501L47.3411 19.8424C47.7041 20.3468 47.6092 21.0817 47.1305 21.4751C47.1305 21.4751 46.0511 22.3626 44.9934 22.7118C43.9356 23.0606 42.7806 23.2354 41.528 23.2354C40.3914 23.2354 39.3336 23.0438 38.3547 22.661C37.3757 22.2779 36.5285 21.7434 35.813 21.0575C35.0969 20.3713 34.5365 19.5555 34.1314 18.6084C33.7267 17.6616 33.5237 16.6085 33.5237 15.4492C33.5237 14.322 33.7106 13.2819 34.0841 12.3301C34.4576 11.3785 34.9839 10.5536 35.6629 9.85676C36.3419 9.16052 37.1549 8.61804 38.102 8.22934C39.0494 7.84122 40.0967 7.64702 41.2438 7.64702C42.433 7.64702 43.5118 7.85244 44.4803 8.26151C45.4487 8.67087 46.2775 9.26441 46.9667 10.0403C47.6559 10.8169 48.1956 11.7663 48.5849 12.8885C48.9742 14.0109 49.0869 15.5628 49.0869 15.5628C49.1322 16.1849 48.6643 16.6938 48.0473 16.6938H37.961Z" fill="#6050A7"/>
<path d="M44.3529 13.7899C44.97 13.7899 45.2933 13.3138 45.0713 12.7318C45.0713 12.7318 44.817 12.0644 44.0066 11.4842C43.1958 10.9045 42.2753 10.6147 41.2438 10.6147C40.212 10.6147 39.2863 10.9045 38.465 11.4842C37.6441 12.0644 37.3874 12.7329 37.3874 12.7329C37.164 13.3144 37.4861 13.7899 38.1032 13.7899H44.3529ZM37.961 16.6938C37.3439 16.6938 37.0034 17.176 37.204 17.7657C37.204 17.7657 37.4785 18.5721 38.2837 19.25C39.0888 19.9286 40.1703 20.2677 41.528 20.2677C42.591 20.2677 43.5145 20.1 44.2986 19.765C45.0824 19.4301 45.4481 19.1373 45.4481 19.1373C45.9317 18.7498 46.6241 18.8457 46.9869 19.3501L47.3411 19.8424C47.7041 20.3468 47.6092 21.0817 47.1305 21.4751C47.1305 21.4751 46.0511 22.3626 44.9934 22.7118C43.9356 23.0606 42.7806 23.2354 41.528 23.2354C40.3914 23.2354 39.3336 23.0438 38.3547 22.661C37.3757 22.2779 36.5285 21.7434 35.813 21.0575C35.0969 20.3713 34.5365 19.5555 34.1314 18.6084C33.7267 17.6616 33.5237 16.6085 33.5237 15.4492C33.5237 14.322 33.7106 13.2819 34.0841 12.3301C34.4576 11.3785 34.9839 10.5536 35.6629 9.85676C36.3419 9.16052 37.1549 8.61804 38.102 8.22934C39.0494 7.84122 40.0967 7.64702 41.2438 7.64702C42.433 7.64702 43.5118 7.85244 44.4803 8.26151C45.4487 8.67087 46.2775 9.26441 46.9667 10.0403C47.6559 10.8169 48.1956 11.7663 48.5849 12.8885C48.9742 14.0109 49.0869 15.5628 49.0869 15.5628C49.1322 16.1849 48.6643 16.6938 48.0473 16.6938H37.961Z" fill="#6050A7"/>
<path d="M64.9828 18.4168C64.9828 19.3849 64.767 20.1718 64.3356 20.7783C63.9037 21.3845 63.3488 21.8739 62.6698 22.246C61.9911 22.6188 61.2333 22.8762 60.3966 23.0199C59.5599 23.1636 58.7413 23.2354 57.9416 23.2354C56.605 23.2354 55.2735 23.0394 53.9474 22.6486C52.6212 22.2567 51.4942 21.6451 51.4942 21.6451C50.9504 21.3503 50.7337 20.6537 51.0126 20.0974L51.3564 19.4123C51.6353 18.856 52.3116 18.6358 52.8592 18.9227C52.8592 18.9227 54.0814 19.5635 55.0446 19.8447C56.0077 20.1266 56.9729 20.2677 57.9416 20.2677C59.2573 20.2677 60.2149 20.1266 60.8148 19.8444C61.4149 19.562 61.7148 19.1706 61.7148 18.6704C61.7148 18.4254 61.6304 18.2232 61.4622 18.0632C61.2937 17.9036 61.0145 17.7569 60.6255 17.6241C60.2359 17.491 59.7228 17.3576 59.0862 17.2247C58.4492 17.0913 57.6575 16.9503 56.7101 16.8009C55.9522 16.6734 55.2341 16.5164 54.5551 16.3299C53.8764 16.1436 53.2789 15.8801 52.7631 15.5392C52.2474 15.1983 51.8342 14.7671 51.524 14.245C51.2136 13.7229 51.0582 13.0682 51.0582 12.2799C51.0582 11.4812 51.2617 10.7862 51.6691 10.1956C52.076 9.60412 52.6101 9.11713 53.271 8.73374C53.9322 8.35005 54.6734 8.0735 55.4943 7.90291C56.3153 7.73261 57.1365 7.64702 57.9574 7.64702C59.1151 7.64702 60.2386 7.79872 61.3279 8.10184C62.4172 8.40495 63.2127 8.8515 63.2127 8.8515C63.7521 9.15432 63.9633 9.85617 63.6817 10.4113L63.4104 10.9458C63.1292 11.501 62.4537 11.7144 61.9096 11.4201C61.9096 11.4201 61.2806 11.0801 60.5069 10.8939C59.7333 10.7083 58.8832 10.6147 57.9574 10.6147C57.5678 10.6147 57.1625 10.6365 56.7416 10.6784C56.3208 10.7212 55.9309 10.8039 55.5735 10.9258C55.2157 11.0483 54.9181 11.213 54.6816 11.4204C54.4447 11.6279 54.3262 11.8809 54.3262 12.1784C54.3262 12.5718 54.6702 12.8941 55.3588 13.1438C56.0472 13.3935 57.2215 13.6408 58.8823 13.8855C59.7856 14.0133 60.6106 14.1753 61.3568 14.3722C62.103 14.5693 62.7443 14.835 63.2802 15.1699C63.8161 15.5049 64.2337 15.9358 64.5333 16.4624C64.8327 16.9889 64.9828 17.6409 64.9828 18.4168Z" fill="#6050A7"/>
<path d="M64.9828 18.4168C64.9828 19.3849 64.767 20.1718 64.3356 20.7783C63.9037 21.3845 63.3488 21.8739 62.6698 22.246C61.9911 22.6188 61.2333 22.8762 60.3966 23.0199C59.5599 23.1636 58.7413 23.2354 57.9416 23.2354C56.605 23.2354 55.2735 23.0394 53.9474 22.6486C52.6212 22.2567 51.4942 21.6451 51.4942 21.6451C50.9504 21.3503 50.7337 20.6537 51.0126 20.0974L51.3564 19.4123C51.6353 18.856 52.3116 18.6358 52.8592 18.9227C52.8592 18.9227 54.0814 19.5635 55.0446 19.8447C56.0077 20.1266 56.9729 20.2677 57.9416 20.2677C59.2573 20.2677 60.2149 20.1266 60.8148 19.8444C61.4149 19.562 61.7148 19.1706 61.7148 18.6704C61.7148 18.4254 61.6304 18.2232 61.4622 18.0632C61.2937 17.9036 61.0145 17.7569 60.6255 17.6241C60.2359 17.491 59.7228 17.3576 59.0862 17.2247C58.4492 17.0913 57.6575 16.9503 56.7101 16.8009C55.9522 16.6734 55.2341 16.5164 54.5551 16.3299C53.8764 16.1436 53.2789 15.8801 52.7631 15.5392C52.2474 15.1983 51.8342 14.7671 51.524 14.245C51.2136 13.7229 51.0582 13.0682 51.0582 12.2799C51.0582 11.4812 51.2617 10.7862 51.6691 10.1956C52.076 9.60412 52.6101 9.11713 53.271 8.73374C53.9322 8.35005 54.6734 8.0735 55.4943 7.90291C56.3153 7.73261 57.1365 7.64702 57.9574 7.64702C59.1151 7.64702 60.2386 7.79872 61.3279 8.10184C62.4172 8.40495 63.2127 8.8515 63.2127 8.8515C63.7521 9.15432 63.9633 9.85617 63.6817 10.4113L63.4104 10.9458C63.1292 11.501 62.4537 11.7144 61.9096 11.4201C61.9096 11.4201 61.2806 11.0801 60.5069 10.8939C59.7333 10.7083 58.8832 10.6147 57.9574 10.6147C57.5678 10.6147 57.1625 10.6365 56.7416 10.6784C56.3208 10.7212 55.9309 10.8039 55.5735 10.9258C55.2157 11.0483 54.9181 11.213 54.6816 11.4204C54.4447 11.6279 54.3262 11.8809 54.3262 12.1784C54.3262 12.5718 54.6702 12.8941 55.3588 13.1438C56.0472 13.3935 57.2215 13.6408 58.8823 13.8855C59.7856 14.0133 60.6106 14.1753 61.3568 14.3722C62.103 14.5693 62.7443 14.835 63.2802 15.1699C63.8161 15.5049 64.2337 15.9358 64.5333 16.4624C64.8327 16.9889 64.9828 17.6409 64.9828 18.4168Z" fill="#6050A7"/>
<path d="M80.0941 17.8965C80.696 18.0334 81.0525 18.637 80.8861 19.2376C80.8861 19.2376 80.4124 20.9477 79.3651 21.8626C78.3176 22.7779 77.0101 23.2354 75.4418 23.2354C74.5788 23.2354 73.7894 23.0919 73.0736 22.8041C72.3578 22.517 71.7475 22.1171 71.2425 21.6062C70.7373 21.0953 70.3448 20.4796 70.0662 19.7606C69.7873 19.0419 69.7441 18.534 69.7441 18.534C69.6912 17.9124 69.648 16.8939 69.648 16.2702V12.0996C69.648 11.4759 69.143 10.9659 68.526 10.9659H67.4387C66.8216 10.9659 66.3167 10.4556 66.3167 9.83197V9.13189C66.3167 8.50854 66.8216 7.99824 67.4387 7.99824H68.526C69.143 7.99824 69.648 7.48793 69.648 6.86429V3.1806C69.648 2.55725 70.1526 2.04695 70.7697 2.04695H71.7939C72.411 2.04695 72.9159 2.55725 72.9159 3.1806V6.86429C72.9159 7.48793 73.4209 7.99824 74.0377 7.99824H77.9668C78.5839 7.99824 79.0888 8.50854 79.0888 9.13189V9.83197C79.0888 10.4556 78.5839 10.9659 77.9668 10.9659H74.0377C73.4209 10.9659 72.9159 11.4759 72.9159 12.0996V16.2841C72.9159 16.9078 72.9857 17.9233 73.071 18.5408C73.071 18.5408 73.1472 19.0936 73.6104 19.5635C74.0736 20.0333 74.684 20.2677 75.4418 20.2677C76.3679 20.2677 77.0574 19.9964 77.5101 19.454C77.9624 18.9115 78.0419 18.5913 78.0419 18.5913C78.1923 17.9865 78.8076 17.6037 79.4098 17.7407L80.0941 17.8965Z" fill="#6050A7"/>
<path d="M80.0941 17.8965C80.696 18.0334 81.0525 18.637 80.8861 19.2376C80.8861 19.2376 80.4124 20.9477 79.3651 21.8626C78.3176 22.7779 77.0101 23.2354 75.4418 23.2354C74.5788 23.2354 73.7894 23.0919 73.0736 22.8041C72.3578 22.517 71.7475 22.1171 71.2425 21.6062C70.7373 21.0953 70.3448 20.4796 70.0662 19.7606C69.7873 19.0419 69.7441 18.534 69.7441 18.534C69.6912 17.9124 69.648 16.8939 69.648 16.2702V12.0996C69.648 11.4759 69.143 10.9659 68.526 10.9659H67.4387C66.8216 10.9659 66.3167 10.4556 66.3167 9.83197V9.13189C66.3167 8.50854 66.8216 7.99824 67.4387 7.99824H68.526C69.143 7.99824 69.648 7.48793 69.648 6.86429V3.1806C69.648 2.55725 70.1526 2.04695 70.7697 2.04695H71.7939C72.411 2.04695 72.9159 2.55725 72.9159 3.1806V6.86429C72.9159 7.48793 73.4209 7.99824 74.0377 7.99824H77.9668C78.5839 7.99824 79.0888 8.50854 79.0888 9.13189V9.83197C79.0888 10.4556 78.5839 10.9659 77.9668 10.9659H74.0377C73.4209 10.9659 72.9159 11.4759 72.9159 12.0996V16.2841C72.9159 16.9078 72.9857 17.9233 73.071 18.5408C73.071 18.5408 73.1472 19.0936 73.6104 19.5635C74.0736 20.0333 74.684 20.2677 75.4418 20.2677C76.3679 20.2677 77.0574 19.9964 77.5101 19.454C77.9624 18.9115 78.0419 18.5913 78.0419 18.5913C78.1923 17.9865 78.8076 17.6037 79.4098 17.7407L80.0941 17.8965Z" fill="#6050A7"/>
<path d="M94.381 15.4571C94.381 14.7863 94.2785 14.1493 94.0741 13.5472C93.8696 12.9454 93.5735 12.4313 93.1854 12.0051C92.7975 11.5792 92.3279 11.241 91.7774 10.9907C91.2266 10.7401 90.6104 10.6147 89.9288 10.6147C89.2367 10.6147 88.6178 10.7401 88.0726 10.9907C87.5273 11.241 87.0656 11.5792 86.6883 12.0051C86.3104 12.4313 86.0195 12.9454 85.8151 13.5472C85.6107 14.1493 85.5084 14.7863 85.5084 15.4571C85.5084 16.1605 85.6107 16.7994 85.8151 17.3753C86.0195 17.9505 86.3104 18.4567 86.6883 18.8932C87.0656 19.3303 87.5273 19.6685 88.0726 19.9082C88.6178 20.1478 89.2367 20.2677 89.9288 20.2677C90.6104 20.2677 91.2266 20.1478 91.7774 19.9082C92.3279 19.6685 92.7975 19.3303 93.1854 18.8932C93.5735 18.4567 93.8696 17.9505 94.0741 17.3753C94.2785 16.7994 94.381 16.1605 94.381 15.4571ZM97.6489 15.4492C97.6489 16.6085 97.4676 17.6616 97.1043 18.6084C96.7413 19.5555 96.2203 20.3713 95.5413 21.0575C94.8626 21.7434 94.0495 22.2779 93.1021 22.661C92.155 23.0438 91.0973 23.2354 89.9288 23.2354C88.7817 23.2354 87.7344 23.0438 86.7873 22.661C85.8399 22.2779 85.0269 21.7434 84.3482 21.0575C83.6692 20.3713 83.1481 19.5555 82.7851 18.6084C82.4218 17.6616 82.2405 16.6085 82.2405 15.4492C82.2405 14.322 82.4218 13.2769 82.7851 12.3138C83.1481 11.3514 83.6692 10.5217 84.3482 9.82489C85.0269 9.12864 85.8399 8.59118 86.7873 8.2134C87.7344 7.83621 88.7817 7.64702 89.9288 7.64702C91.0973 7.64702 92.155 7.83621 93.1021 8.2134C94.0495 8.59118 94.8626 9.12864 95.5413 9.82489C96.2203 10.5217 96.7413 11.3514 97.1043 12.3138C97.4676 13.2769 97.6489 14.322 97.6489 15.4492Z" fill="#6050A7"/>
<path d="M94.381 15.4571C94.381 14.7863 94.2785 14.1493 94.0741 13.5472C93.8696 12.9454 93.5735 12.4313 93.1854 12.0051C92.7975 11.5792 92.3279 11.241 91.7774 10.9907C91.2266 10.7401 90.6104 10.6147 89.9288 10.6147C89.2367 10.6147 88.6178 10.7401 88.0726 10.9907C87.5273 11.241 87.0656 11.5792 86.6883 12.0051C86.3104 12.4313 86.0195 12.9454 85.8151 13.5472C85.6107 14.1493 85.5084 14.7863 85.5084 15.4571C85.5084 16.1605 85.6107 16.7994 85.8151 17.3753C86.0195 17.9505 86.3104 18.4567 86.6883 18.8932C87.0656 19.3303 87.5273 19.6685 88.0726 19.9082C88.6178 20.1478 89.2367 20.2677 89.9288 20.2677C90.6104 20.2677 91.2266 20.1478 91.7774 19.9082C92.3279 19.6685 92.7975 19.3303 93.1854 18.8932C93.5735 18.4567 93.8696 17.9505 94.0741 17.3753C94.2785 16.7994 94.381 16.1605 94.381 15.4571ZM97.6489 15.4492C97.6489 16.6085 97.4676 17.6616 97.1043 18.6084C96.7413 19.5555 96.2203 20.3713 95.5413 21.0575C94.8626 21.7434 94.0495 22.2779 93.1021 22.661C92.155 23.0438 91.0973 23.2354 89.9288 23.2354C88.7817 23.2354 87.7344 23.0438 86.7873 22.661C85.8399 22.2779 85.0269 21.7434 84.3482 21.0575C83.6692 20.3713 83.1481 19.5555 82.7851 18.6084C82.4218 17.6616 82.2405 16.6085 82.2405 15.4492C82.2405 14.322 82.4218 13.2769 82.7851 12.3138C83.1481 11.3514 83.6692 10.5217 84.3482 9.82489C85.0269 9.12864 85.8399 8.59118 86.7873 8.2134C87.7344 7.83621 88.7817 7.64702 89.9288 7.64702C91.0973 7.64702 92.155 7.83621 93.1021 8.2134C94.0495 8.59118 94.8626 9.12864 95.5413 9.82489C96.2203 10.5217 96.7413 11.3514 97.1043 12.3138C97.4676 13.2769 97.6489 14.322 97.6489 15.4492Z" fill="#6050A7"/>
<path d="M113.026 21.7342C113.026 22.3579 112.521 22.8682 111.904 22.8682H110.88C110.263 22.8682 109.758 22.3579 109.758 21.7342V14.8276C109.758 14.2039 109.703 13.1868 109.635 12.567C109.635 12.567 109.543 11.7315 109.111 11.2846C108.679 10.8378 108.053 10.6144 107.232 10.6144C106.022 10.6144 105.035 11.109 104.272 12.0984C103.509 13.0877 103.265 15.0737 103.265 15.0737C103.19 15.6923 103.128 16.7091 103.128 17.3327V21.7342C103.128 22.3579 102.623 22.8682 102.006 22.8682H100.982C100.365 22.8682 99.8596 22.3579 99.8596 21.7342V9.13157C99.8596 8.50793 100.365 7.99792 100.982 7.99792H102.006C102.623 7.99792 103.128 8.50793 103.128 9.13157V10.5975C103.128 11.2212 103.319 11.2596 103.554 10.6825C103.554 10.6825 104.059 9.44176 104.943 8.72368C105.827 8.00589 106.917 7.6467 108.211 7.6467C109.716 7.6467 110.895 8.14136 111.748 9.13068C112.6 10.12 112.892 12.5682 112.892 12.5682C112.966 13.1871 113.026 14.2039 113.026 14.8276V21.7342Z" fill="#6050A7"/>
<path d="M113.026 21.7342C113.026 22.3579 112.521 22.8682 111.904 22.8682H110.88C110.263 22.8682 109.758 22.3579 109.758 21.7342V14.8276C109.758 14.2039 109.703 13.1868 109.635 12.567C109.635 12.567 109.543 11.7315 109.111 11.2846C108.679 10.8378 108.053 10.6144 107.232 10.6144C106.022 10.6144 105.035 11.109 104.272 12.0984C103.509 13.0877 103.265 15.0737 103.265 15.0737C103.19 15.6923 103.128 16.7091 103.128 17.3327V21.7342C103.128 22.3579 102.623 22.8682 102.006 22.8682H100.982C100.365 22.8682 99.8596 22.3579 99.8596 21.7342V9.13157C99.8596 8.50793 100.365 7.99792 100.982 7.99792H102.006C102.623 7.99792 103.128 8.50793 103.128 9.13157V10.5975C103.128 11.2212 103.319 11.2596 103.554 10.6825C103.554 10.6825 104.059 9.44176 104.943 8.72368C105.827 8.00589 106.917 7.6467 108.211 7.6467C109.716 7.6467 110.895 8.14136 111.748 9.13068C112.6 10.12 112.892 12.5682 112.892 12.5682C112.966 13.1871 113.026 14.2039 113.026 14.8276V21.7342Z" fill="#6050A7"/>
<path d="M125.839 13.7899C126.456 13.7899 126.78 13.3138 126.558 12.7318C126.558 12.7318 126.303 12.0644 125.493 11.4842C124.682 10.9045 123.762 10.6147 122.73 10.6147C121.698 10.6147 120.773 10.9045 119.951 11.4842C119.13 12.0644 118.874 12.7329 118.874 12.7329C118.65 13.3144 118.972 13.7899 119.59 13.7899H125.839ZM119.447 16.6938C118.83 16.6938 118.49 17.176 118.69 17.7657C118.69 17.7657 118.965 18.5721 119.77 19.25C120.575 19.9286 121.657 20.2677 123.014 20.2677C124.077 20.2677 125.001 20.1 125.785 19.765C126.569 19.4301 126.934 19.1373 126.934 19.1373C127.418 18.7498 128.11 18.8457 128.473 19.3501L128.827 19.8424C129.19 20.3468 129.096 21.0817 128.617 21.4751C128.617 21.4751 127.537 22.3626 126.48 22.7118C125.422 23.0606 124.267 23.2354 123.014 23.2354C121.878 23.2354 120.82 23.0438 119.841 22.661C118.862 22.2779 118.015 21.7434 117.299 21.0575C116.583 20.3713 116.023 19.5555 115.618 18.6084C115.213 17.6616 115.01 16.6085 115.01 15.4492C115.01 14.322 115.197 13.2819 115.57 12.3301C115.944 11.3785 116.47 10.5536 117.149 9.85676C117.828 9.16052 118.641 8.61804 119.588 8.22934C120.536 7.84122 121.583 7.64702 122.73 7.64702C123.919 7.64702 124.998 7.85244 125.967 8.26151C126.935 8.67087 127.764 9.26441 128.453 10.0403C129.142 10.8169 129.682 11.7663 130.071 12.8885C130.461 14.0109 130.573 15.5628 130.573 15.5628C130.619 16.1849 130.151 16.6938 129.534 16.6938H119.447Z" fill="#6050A7"/>
<path d="M125.839 13.7899C126.456 13.7899 126.78 13.3138 126.558 12.7318C126.558 12.7318 126.303 12.0644 125.493 11.4842C124.682 10.9045 123.762 10.6147 122.73 10.6147C121.698 10.6147 120.773 10.9045 119.951 11.4842C119.13 12.0644 118.874 12.7329 118.874 12.7329C118.65 13.3144 118.972 13.7899 119.59 13.7899H125.839ZM119.447 16.6938C118.83 16.6938 118.49 17.176 118.69 17.7657C118.69 17.7657 118.965 18.5721 119.77 19.25C120.575 19.9286 121.657 20.2677 123.014 20.2677C124.077 20.2677 125.001 20.1 125.785 19.765C126.569 19.4301 126.934 19.1373 126.934 19.1373C127.418 18.7498 128.11 18.8457 128.473 19.3501L128.827 19.8424C129.19 20.3468 129.096 21.0817 128.617 21.4751C128.617 21.4751 127.537 22.3626 126.48 22.7118C125.422 23.0606 124.267 23.2354 123.014 23.2354C121.878 23.2354 120.82 23.0438 119.841 22.661C118.862 22.2779 118.015 21.7434 117.299 21.0575C116.583 20.3713 116.023 19.5555 115.618 18.6084C115.213 17.6616 115.01 16.6085 115.01 15.4492C115.01 14.322 115.197 13.2819 115.57 12.3301C115.944 11.3785 116.47 10.5536 117.149 9.85676C117.828 9.16052 118.641 8.61804 119.588 8.22934C120.536 7.84122 121.583 7.64702 122.73 7.64702C123.919 7.64702 124.998 7.85244 125.967 8.26151C126.935 8.67087 127.764 9.26441 128.453 10.0403C129.142 10.8169 129.682 11.7663 130.071 12.8885C130.461 14.0109 130.573 15.5628 130.573 15.5628C130.619 16.1849 130.151 16.6938 129.534 16.6938H119.447Z" fill="#6050A7"/>
</g>
</g>
<defs>
<clipPath id="clip0_12335_7085">
<rect width="132" height="30" fill="white"/>
</clipPath>
</defs>
</svg>
