<svg width="158" height="162" viewBox="0 0 158 162" fill="none" xmlns="http://www.w3.org/2000/svg">
<path d="M52.7433 133.827C53.8252 139.813 54.6108 121.735 56.641 116.001C62.6863 98.9287 71.3995 82.777 79.222 66.4878C89.4439 45.202 99.4689 24.2295 107.056 1.95494C107.782 -0.178073 110.376 13.7587 110.653 15.2902C115.381 41.4509 124.294 63.8777 136.652 87.3834C142.821 99.1165 147.195 112.139 154.871 122.995C160.947 131.588 141.896 106.295 134.126 99.198C102.965 70.7393 59.0058 60.9879 18.0306 68.3944C16.4238 68.6849 2.24368 69.7917 2.00951 72.138C1.72498 74.9889 31.1118 70.1627 33.0541 69.9169C61.2737 66.3453 91.7942 61.6377 118.3 51.0329C127.533 47.339 136.966 43.8448 146.77 42.0725C151.204 41.2711 156.642 40.6862 149.728 45.7759C145.957 48.5519 141.137 49.3016 137.025 51.4625C128.888 55.7381 122.042 61.075 115.426 67.4874C92.4435 89.7611 73.311 114.832 52.0671 138.526C46.4006 144.846 42.131 155.868 34.5879 159.994" stroke="#F3CD7E" stroke-width="3" stroke-linecap="round"/>
</svg>
