<svg width="64" height="64" viewBox="0 0 64 64" fill="none" xmlns="http://www.w3.org/2000/svg">
<rect x="64" y="64" width="64" height="64" rx="32" transform="rotate(-180 64 64)" fill="black"/>
<path d="M28.2929 22.2929C28.6834 21.9024 29.3164 21.9024 29.707 22.2929C30.0975 22.6834 30.0975 23.3164 29.707 23.707L22.414 30.9999L43.9999 30.9999C44.5522 30.9999 44.9999 31.4476 44.9999 31.9999C44.9999 32.5522 44.5522 32.9999 43.9999 32.9999L22.414 32.9999L29.707 40.2929C30.0975 40.6834 30.0975 41.3164 29.707 41.707C29.3164 42.0975 28.6834 42.0975 28.2929 41.707L19.2929 32.707C18.9024 32.3164 18.9024 31.6834 19.2929 31.2929L28.2929 22.2929Z" fill="white"/>
</svg>
