<svg width="64" height="64" viewBox="0 0 64 64" fill="none" xmlns="http://www.w3.org/2000/svg">
<rect width="64" height="64" rx="32" fill="black"/>
<path d="M35.7071 41.7071C35.3166 42.0976 34.6836 42.0976 34.293 41.7071C33.9025 41.3166 33.9025 40.6836 34.293 40.293L41.586 33.0001H20.0001C19.4478 33.0001 19.0001 32.5524 19.0001 32.0001C19.0001 31.4478 19.4478 31.0001 20.0001 31.0001L41.586 31.0001L34.293 23.7071C33.9025 23.3166 33.9025 22.6836 34.293 22.293C34.6836 21.9025 35.3166 21.9025 35.7071 22.293L44.7071 31.293C45.0976 31.6836 45.0976 32.3166 44.7071 32.7071L35.7071 41.7071Z" fill="white"/>
</svg>
