<svg width="22" height="22" viewBox="0 0 22 22" fill="none" xmlns="http://www.w3.org/2000/svg">
<path d="M11 0C17.0751 0 22 4.92487 22 11C22 17.0751 17.0751 22 11 22C9.19 22 7.47959 21.5623 5.97168 20.7861L2.30273 21.9531C1.95747 22.0628 1.5796 21.9774 1.31543 21.7295C1.05114 21.4814 0.942444 21.1095 1.03027 20.7578L1.91895 17.2002C0.746237 15.4491 0 13.2695 0 11C0 4.92487 4.92487 0 11 0ZM11 2C6.02944 2 2 6.02944 2 11C2 12.98 2.70547 14.9089 3.80566 16.4082C3.98157 16.6479 4.04172 16.9537 3.96973 17.2422L3.4043 19.5039L5.76953 18.751C6.035 18.6665 6.32408 18.6966 6.56641 18.834C7.87415 19.5758 9.38609 20 11 20C15.9706 20 20 15.9706 20 11C20 6.02944 15.9706 2 11 2ZM7.88184 6C8.26056 6.00002 8.60697 6.21401 8.77637 6.55273L9.60547 8.20996C9.83096 8.66094 9.68503 9.20945 9.26562 9.48926L9.13574 9.57617C8.76053 9.82631 8.59123 10.3024 8.80371 10.7002C9.34546 11.7142 10.2858 12.6545 11.2998 13.1963C11.6976 13.4088 12.1737 13.2395 12.4238 12.8643L12.5107 12.7344C12.7905 12.315 13.3391 12.169 13.79 12.3945L15.4473 13.2236C15.786 13.393 16 13.7394 16 14.1182V14.5859C16 14.8511 15.8953 15.107 15.6807 15.2627C15.2722 15.559 14.4969 16 13.502 16C10.0002 16 6.00035 12.0003 6 8.55664C6 7.54759 6.44006 6.75208 6.73633 6.33105C6.8923 6.10957 7.15292 6.0001 7.42383 6H7.88184Z" fill="black"/>
</svg>
