<svg width="422" height="71" viewBox="0 0 422 71" fill="none" xmlns="http://www.w3.org/2000/svg">
<path d="M399.924 11.3918C399.924 17.2828 404.699 22.0584 410.59 22.0584C416.482 22.0584 421.257 17.2828 421.257 11.3918C421.257 5.50073 416.482 0.725101 410.59 0.725101C404.699 0.725101 399.924 5.50073 399.924 11.3918ZM2.11966 50.6901C1.01509 50.6901 0.234043 52.0429 0.786328 52.9995L9.66667 68.3807C10.219 69.3372 11.781 69.3372 12.3333 68.3807L21.2137 52.9995C21.766 52.0429 20.9849 50.6901 19.8803 50.6901H2.11966ZM410.59 11.3918H412.59H410.59ZM408.59 9.3916V7.3916H35V9.3916V11.3916H408.59V9.3916ZM11 33.3916H9V52.6901H11H13V33.3916H11ZM35 9.3916V7.3916C20.6406 7.3916 9 19.0322 9 33.3916H11H13C13 21.2413 22.8497 11.3916 35 11.3916V9.3916ZM410.59 11.3918H412.59C412.59 9.18254 410.8 7.3916 408.59 7.3916V9.3916V11.3916L408.59 11.3918H410.59Z" fill="#6050A7"/>
</svg>
