<svg width="46" height="130" viewBox="0 0 46 130" fill="none" xmlns="http://www.w3.org/2000/svg">
<path d="M2 0C1.17157 0 0.5 0.671573 0.5 1.5C0.5 2.32843 1.17157 3 2 3V0ZM30.6985 115C29.87 115 29.2842 116.015 29.6985 116.732L36.3587 128.268C36.7729 128.985 37.9445 128.985 38.3587 128.268L45.019 116.732C45.4332 116.015 44.8474 115 44.019 115H30.6985ZM2 1.5V3H13.3587V1.5V0H2V1.5ZM37.3587 25.5H35.8587V116.5H37.3587H38.8587V25.5H37.3587ZM13.3587 1.5V3C25.7851 3 35.8587 13.0736 35.8587 25.5H37.3587H38.8587C38.8587 11.4167 27.442 0 13.3587 0V1.5Z" fill="#6050A7"/>
</svg>
