<svg width="185" height="179" viewBox="0 0 185 179" fill="none" xmlns="http://www.w3.org/2000/svg">
<path d="M163.333 11C163.333 16.891 168.109 21.6667 174 21.6667C179.891 21.6667 184.667 16.891 184.667 11C184.667 5.10896 179.891 0.333333 174 0.333333C168.109 0.333333 163.333 5.10896 163.333 11ZM46.2462 159C45.1416 159 44.3606 160.353 44.9129 161.309L53.7932 176.691C54.3455 177.647 55.9076 177.647 56.4599 176.691L65.3402 161.309C65.8925 160.353 65.1114 159 64.0069 159H46.2462ZM174 11V9H26V11V13H174V11ZM2 35H0V100H2H4V35H2ZM26 124V126H31.1265V124V122H26V124ZM55.1265 148H53.1265V161H55.1265H57.1265V148H55.1265ZM31.1265 124V126C43.2768 126 53.1265 135.85 53.1265 148H55.1265H57.1265C57.1265 133.641 45.4859 122 31.1265 122V124ZM2 100H0C0 114.359 11.6406 126 26 126V124V122C13.8497 122 4 112.15 4 100H2ZM26 11V9C11.6406 9 0 20.6406 0 35H2H4C4 22.8497 13.8497 13 26 13V11Z" fill="#6050A7"/>
</svg>
