<svg width="250" height="89" viewBox="0 0 250 89" fill="none" xmlns="http://www.w3.org/2000/svg">
<path d="M0.333333 42C0.333333 47.891 5.10896 52.6667 11 52.6667C16.891 52.6667 21.6667 47.891 21.6667 42C21.6667 36.109 16.891 31.3333 11 31.3333C5.10896 31.3333 0.333333 36.109 0.333333 42ZM229.519 87.0964C229.519 88.201 230.872 88.982 231.829 88.4297L247.21 79.5494C248.167 78.9971 248.167 77.435 247.21 76.8827L231.829 68.0024C230.872 67.4501 229.519 68.2312 229.519 69.3357V87.0964ZM11 42V44H42.0024V42V40H11V42ZM62.0024 22H64.0024V17.4995H62.0024H60.0024V22H62.0024ZM93.0015 17.4995H91.0015V54.2161H93.0015H95.0015V17.4995H93.0015ZM117.001 78.2161V80.2161H231.519V78.2161V76.2161H117.001V78.2161ZM93.0015 54.2161H91.0015C91.0015 68.5755 102.642 80.2161 117.001 80.2161V78.2161V76.2161C104.851 76.2161 95.0015 66.3663 95.0015 54.2161H93.0015ZM77.502 2V4C84.9575 4 91.0015 10.0439 91.0015 17.4995H93.0015H95.0015C95.0015 7.8348 87.1667 0 77.502 0V2ZM62.0024 17.4995H64.0024C64.0024 10.0439 70.0464 4 77.502 4V2V0C67.8372 0 60.0024 7.8348 60.0024 17.4995H62.0024ZM42.0024 42V44C54.1527 44 64.0024 34.1503 64.0024 22H62.0024H60.0024C60.0024 31.9411 51.9436 40 42.0024 40V42Z" fill="#6050A7"/>
</svg>
