<svg width="80" height="122" viewBox="0 0 80 122" fill="none" xmlns="http://www.w3.org/2000/svg">
<path d="M2 0C1.17157 0 0.5 0.671573 0.5 1.5C0.5 2.32843 1.17157 3 2 3V0ZM64.9903 107C64.1618 107 63.576 108.015 63.9903 108.732L70.6505 120.268C71.0647 120.985 72.2363 120.985 72.6505 120.268L79.3108 108.732C79.725 108.015 79.1392 107 78.3108 107H64.9903ZM2 1.5V3H47.6505V1.5V0H2V1.5ZM71.6505 25.5H70.1505V108.5H71.6505H73.1505V25.5H71.6505ZM47.6505 1.5V3C60.0769 3 70.1505 13.0736 70.1505 25.5H71.6505H73.1505C73.1505 11.4167 61.7338 0 47.6505 0V1.5Z" fill="#6050A7"/>
</svg>
