<svg width="182" height="192" viewBox="0 0 182 192" fill="none" xmlns="http://www.w3.org/2000/svg">
<path d="M2.11966 171.69C1.01509 171.69 0.234043 173.043 0.786328 173.999L9.66667 189.381C10.219 190.337 11.781 190.337 12.3333 189.381L21.2137 173.999C21.766 173.043 20.9849 171.69 19.8803 171.69H2.11966ZM41.3333 11C41.3333 16.891 46.109 21.6667 52 21.6667C57.891 21.6667 62.6667 16.891 62.6667 11C62.6667 5.10896 57.891 0.333333 52 0.333333C46.109 0.333333 41.3333 5.10896 41.3333 11ZM11 173.69H13V168H11H9V173.69H11ZM35 144V146H156V144V142H35V144ZM180 120H182V35H180H178V120H180ZM156 11V9H52V11V13H156V11ZM180 35H182C182 20.6406 170.359 9 156 9V11V13C168.15 13 178 22.8497 178 35H180ZM156 144V146C170.359 146 182 134.359 182 120H180H178C178 132.15 168.15 142 156 142V144ZM11 168H13C13 155.85 22.8497 146 35 146V144V142C20.6406 142 9 153.641 9 168H11Z" fill="#6050A7"/>
</svg>
