<svg width="173" height="155" viewBox="0 0 173 155" fill="none" xmlns="http://www.w3.org/2000/svg">
<path d="M0.333333 11C0.333333 16.891 5.10896 21.6667 11 21.6667C16.891 21.6667 21.6667 16.891 21.6667 11C21.6667 5.10896 16.891 0.333333 11 0.333333C5.10896 0.333333 0.333333 5.10896 0.333333 11ZM153.546 135C152.442 135 151.661 136.353 152.213 137.309L161.093 152.691C161.645 153.647 163.208 153.647 163.76 152.691L172.64 137.309C173.192 136.353 172.411 135 171.307 135H153.546ZM162.427 35H160.427H162.427ZM11 11V13H138.427V11V9H11V11ZM162.427 35H160.427L160.427 137H162.427H164.427L164.427 35H162.427ZM138.427 11V13C150.577 13 160.427 22.8497 160.427 35H162.427H164.427C164.427 20.6406 152.786 9 138.427 9V11Z" fill="#6050A7"/>
</svg>
