<svg width="65" height="138" viewBox="0 0 65 138" fill="none" xmlns="http://www.w3.org/2000/svg">
<path d="M2 0C1.17157 0 0.5 0.671573 0.5 1.5C0.5 2.32843 1.17157 3 2 3V0ZM22.3587 136.66C22.3587 137.489 23.3733 138.074 24.0908 137.66L35.6267 131C36.3441 130.586 36.3441 129.414 35.6267 129L24.0908 122.34C23.3733 121.926 22.3587 122.511 22.3587 123.34V136.66ZM2 1.5V3H39V1.5V0H2V1.5ZM63 25.5H61.5V79.6794H63H64.5V25.5H63ZM36.3587 106.321H34.8587V129H36.3587H37.8587V106.321H36.3587ZM36.3587 129H34.8587C34.8587 130.381 35.978 131.5 37.3587 131.5V130V128.5C37.6348 128.5 37.8587 128.724 37.8587 129H36.3587ZM49.6794 93V91.5C41.4941 91.5 34.8587 98.1354 34.8587 106.321H36.3587H37.8587C37.8587 99.7923 43.151 94.5 49.6794 94.5V93ZM63 79.6794H61.5C61.5 86.2077 56.2077 91.5 49.6794 91.5V93V94.5C57.8646 94.5 64.5 87.8646 64.5 79.6794H63ZM39 1.5V3C51.4264 3 61.5 13.0736 61.5 25.5H63H64.5C64.5 11.4167 53.0833 0 39 0V1.5Z" fill="#6050A7"/>
</svg>
