<svg width="158" height="170" viewBox="0 0 158 170" fill="none" xmlns="http://www.w3.org/2000/svg">
<path d="M136.333 11C136.333 16.891 141.109 21.6667 147 21.6667C152.891 21.6667 157.667 16.891 157.667 11C157.667 5.10896 152.891 0.333333 147 0.333333C141.109 0.333333 136.333 5.10896 136.333 11ZM20.31 150.12C20.31 149.015 18.9572 148.234 18.0006 148.786L2.6194 157.667C1.66281 158.219 1.66281 159.781 2.6194 160.333L18.0006 169.214C18.9572 169.766 20.31 168.985 20.31 167.88V150.12ZM147 11V9H99.9996V11V13H147V11ZM75.9996 35H73.9996V135H75.9996H77.9996V35H75.9996ZM51.9996 159V157H18.31V159V161H51.9996V159ZM75.9996 135H73.9996C73.9996 147.15 64.1498 157 51.9996 157V159V161C66.359 161 77.9996 149.359 77.9996 135H75.9996ZM99.9996 11V9C85.6402 9 73.9996 20.6406 73.9996 35H75.9996H77.9996C77.9996 22.8497 87.8493 13 99.9996 13V11Z" fill="#6050A7"/>
</svg>
