<svg width="67" height="122" viewBox="0 0 67 122" fill="none" xmlns="http://www.w3.org/2000/svg">
<path d="M65 3C65.8284 3 66.5 2.32843 66.5 1.5C66.5 0.671573 65.8284 0 65 0V3ZM1.55483 107C0.726407 107 0.14062 108.015 0.554834 108.732L7.21509 120.268C7.6293 120.985 8.80087 120.985 9.21509 120.268L15.8753 108.732C16.2896 108.015 15.7038 107 14.8753 107H1.55483ZM65 1.5V0H32.2151V1.5V3H65V1.5ZM8.21509 25.5H6.71509V108.5H8.21509H9.71509V25.5H8.21509ZM32.2151 1.5V0C18.1318 0 6.71509 11.4167 6.71509 25.5H8.21509H9.71509C9.71509 13.0736 19.7887 3 32.2151 3V1.5Z" fill="#6050A7"/>
</svg>
