<svg width="380" height="74" viewBox="0 0 380 74" fill="none" xmlns="http://www.w3.org/2000/svg">
<path d="M360.12 53.6901C359.015 53.6901 358.234 55.0429 358.786 55.9995L367.667 71.3807C368.219 72.3373 369.781 72.3373 370.333 71.3807L379.214 55.9995C379.766 55.0429 378.985 53.6901 377.88 53.6901H360.12ZM0.333455 10.7402C0.333455 16.6313 5.10908 21.4069 11.0001 21.4069C16.8912 21.4069 21.6668 16.6313 21.6668 10.7402C21.6668 4.8492 16.8912 0.0735674 11.0001 0.0735674C5.10908 0.0735674 0.333455 4.8492 0.333455 10.7402ZM369 55.6901H371V34.7403H369H367V55.6901H369ZM345 10.7402V8.74023H11.0001V10.7402V12.7402H345V10.7402ZM369 34.7403H371C371 20.3809 359.36 8.74023 345 8.74023V10.7402V12.7402C357.15 12.7402 367 22.59 367 34.7403H369Z" fill="#6050A7"/>
</svg>
