<svg width="58" height="110" viewBox="0 0 58 110" fill="none" xmlns="http://www.w3.org/2000/svg">
<path d="M55.9999 3C56.8284 3 57.4999 2.32843 57.4999 1.5C57.4999 0.671573 56.8284 0 55.9999 0V3ZM1.60403 95C0.775601 95 0.189815 96.0146 0.604028 96.732L7.26428 108.268C7.6785 108.985 8.85007 108.985 9.26428 108.268L15.9245 96.732C16.3387 96.0146 15.753 95 14.9245 95H1.60403ZM55.9999 1.5V0H32.2643V1.5V3H55.9999V1.5ZM8.26428 25.5H6.76428V96.5H8.26428H9.76428V25.5H8.26428ZM32.2643 1.5V0C18.181 0 6.76428 11.4167 6.76428 25.5H8.26428H9.76428C9.76428 13.0736 19.8379 3 32.2643 3V1.5Z" fill="#6050A7"/>
</svg>
