<svg width="708" height="125" viewBox="0 0 708 125" fill="none" xmlns="http://www.w3.org/2000/svg">
<path d="M663.333 11.5C663.333 17.391 668.109 22.1667 674 22.1667C679.891 22.1667 684.667 17.391 684.667 11.5C684.667 5.60896 679.891 0.833333 674 0.833333C668.109 0.833333 663.333 5.60896 663.333 11.5ZM2.11954 104.69C1.01497 104.69 0.233921 106.043 0.786206 106.999L9.66654 122.381C10.2188 123.337 11.7809 123.337 12.3332 122.381L21.2135 106.999C21.7658 106.043 20.9848 104.69 19.8802 104.69H2.11954ZM674 11.5V13.5H682V11.5V9.5H674V11.5ZM706 35.5H704V63H706H708V35.5H706ZM682 87V85H34.9999V87V89H682V87ZM34.9999 87V85C20.6405 85 8.99988 96.6406 8.99988 111H10.9999H12.9999C12.9999 98.8497 22.8496 89 34.9999 89V87ZM706 63H704C704 75.1503 694.15 85 682 85V87V89C696.359 89 708 77.3594 708 63H706ZM682 11.5V13.5C694.15 13.5 704 23.3497 704 35.5H706H708C708 21.1406 696.359 9.5 682 9.5V11.5Z" fill="#6050A7"/>
</svg>
