<svg width="166" height="171" viewBox="0 0 166 171" fill="none" xmlns="http://www.w3.org/2000/svg">
<path d="M144.333 11C144.333 16.891 149.109 21.6667 155 21.6667C160.891 21.6667 165.667 16.891 165.667 11C165.667 5.10896 160.891 0.333333 155 0.333333C149.109 0.333333 144.333 5.10896 144.333 11ZM47.3097 151C46.2052 151 45.4241 152.353 45.9764 153.309L54.8567 168.691C55.409 169.647 56.9711 169.647 57.5234 168.691L66.4037 153.309C66.956 152.353 66.175 151 65.0704 151H47.3097ZM155 11V9H26V11V13H155V11ZM2 35H0V61H2H4V35H2ZM26 85V87H32.1901V85V83H26V85ZM56.1901 109H54.1901L54.1901 153H56.1901H58.1901L58.1901 109H56.1901ZM32.1901 85V87C44.3403 87 54.1901 96.8497 54.1901 109H56.1901H58.1901C58.1901 94.6406 46.5495 83 32.1901 83V85ZM2 61H0C0 75.3594 11.6406 87 26 87V85V83C13.8497 83 4 73.1503 4 61H2ZM26 11V9C11.6406 9 0 20.6406 0 35H2H4C4 22.8497 13.8497 13 26 13V11Z" fill="#6050A7"/>
</svg>
